HIERARCHY
ROOT root
{
	OFFSET 0.000000 0.000000 0.000000
	CHANNELS 6 Xposition Yposition Zposition Zrotation Yrotation Xrotation
	JOINT lhip
	{
		OFFSET 0.058581 -0.082280 -0.017664
		CHANNELS 3 Zrotation Yrotation Xrotation
		JOINT lknee
		{
			OFFSET 0.043451 -0.386469 0.008037
			CHANNELS 3 Zrotation Yrotation Xrotation
			JOINT lankle
			{
				OFFSET -0.014790 -0.426874 -0.037428
				CHANNELS 3 Zrotation Yrotation Xrotation
				JOINT ltoe
				{
					OFFSET 0.041054 -0.060286 0.122042
					CHANNELS 3 Zrotation Yrotation Xrotation
					End Site
					{
						OFFSET 0.000000 0.000000 0.000000
					}
				}
			}
		}
	}
	JOINT rhip
	{
		OFFSET -0.060310 -0.090513 -0.013543
		CHANNELS 3 Zrotation Yrotation Xrotation
		JOINT rknee
		{
			OFFSET -0.043257 -0.383688 -0.004843
			CHANNELS 3 Zrotation Yrotation Xrotation
			JOINT rankle
			{
				OFFSET 0.019056 -0.420046 -0.034562
				CHANNELS 3 Zrotation Yrotation Xrotation
				JOINT rtoe
				{
					OFFSET -0.034840 -0.062106 0.130323
					CHANNELS 3 Zrotation Yrotation Xrotation
					End Site
					{
						OFFSET 0.000000 0.000000 0.000000
					}
				}
			}
		}
	}
	JOINT lowerback
	{
		OFFSET 0.004439 0.124404 -0.038385
		CHANNELS 3 Zrotation Yrotation Xrotation
		JOINT upperback
		{
			OFFSET 0.004488 0.137956 0.026820
			CHANNELS 3 Zrotation Yrotation Xrotation
			JOINT chest
			{
				OFFSET -0.002265 0.056032 0.002855
				CHANNELS 3 Zrotation Yrotation Xrotation
				JOINT lowerneck
				{
					OFFSET -0.013390 0.211636 -0.033468
					CHANNELS 3 Zrotation Yrotation Xrotation
					JOINT upperneck
					{
						OFFSET 0.010113 0.088937 0.050410
						CHANNELS 3 Zrotation Yrotation Xrotation
						End Site
						{
							OFFSET 0.000000 0.000000 0.000000
						}
					}
				}
				JOINT lclavicle
				{
					OFFSET 0.071702 0.114000 -0.018898
					CHANNELS 3 Zrotation Yrotation Xrotation
					JOINT lshoulder
					{
						OFFSET 0.122921 0.045205 -0.019046
						CHANNELS 3 Zrotation Yrotation Xrotation
						JOINT lelbow
						{
							OFFSET 0.255332 -0.015649 -0.022946
							CHANNELS 3 Zrotation Yrotation Xrotation
							JOINT lwrist
							{
								OFFSET 0.265709 0.012698 -0.007375
								CHANNELS 3 Zrotation Yrotation Xrotation
								End Site
								{
									OFFSET 0.000000 0.000000 0.000000
								}
							}
						}
					}
				}
				JOINT rclavicle
				{
					OFFSET -0.082954 0.112472 -0.023707
					CHANNELS 3 Zrotation Yrotation Xrotation
					JOINT rshoulder
					{
						OFFSET -0.113228 0.046853 -0.008472
						CHANNELS 3 Zrotation Yrotation Xrotation
						JOINT relbow
						{
							OFFSET -0.260127 -0.014369 -0.031269
							CHANNELS 3 Zrotation Yrotation Xrotation
							JOINT rwrist
							{
								OFFSET -0.269108 0.006794 -0.006027
								CHANNELS 3 Zrotation Yrotation Xrotation
								End Site
								{
									OFFSET 0.000000 0.000000 0.000000
								}
							}
						}
					}
				}
			}
		}
	}
}
MOTION
Frames: 17
Frame Time: 0.033333
-0.390200 0.863685 0.990149 2.795168 2.444334 86.802868 1.355928 3.497911 1.742373 -3.321488 -0.734162 5.080317 4.440628 15.712108 -15.144540 0.000000 -0.000000 0.000000 -2.301085 -3.187959 -6.696562 0.469488 -6.792146 27.269803 3.210788 -14.017283 -20.540580 0.000000 -0.000000 0.000000 0.387783 -0.208209 16.602571 1.822233 1.739544 4.531620 -1.071171 -0.595435 10.954954 0.828159 -2.658214 10.981097 -4.227060 -7.432393 17.178305 -22.685339 20.462624 3.883955 -43.716612 6.457376 15.935144 -65.989287 -65.592692 88.629629 31.426600 -31.708144 -9.107293 24.199714 -11.402918 2.104687 33.867872 -7.298304 23.056772 61.124006 66.818721 86.248522 -27.236999 36.692881 11.917050 
-0.397985 0.869506 0.990378 1.151269 2.121277 87.412930 1.321846 3.615283 0.785221 -3.089141 0.413070 5.026986 4.456559 15.860349 -14.495742 0.000000 -0.000000 0.000000 -2.461607 -4.018364 -5.183793 0.457800 -6.269824 24.925171 3.587355 -13.610782 -19.091784 0.000000 -0.000000 0.000000 0.327766 0.296468 16.130177 1.542468 1.481824 4.537290 -1.218736 -0.652206 10.878264 0.565431 -2.715694 10.757105 -3.691934 -7.178917 17.022260 -22.261985 20.395228 3.850706 -43.597311 6.611028 16.167602 -66.925993 -65.437396 89.710546 31.811595 -31.633070 -9.543213 24.092866 -11.527566 2.168650 34.115791 -7.164008 22.937154 61.026277 66.761994 86.354991 -26.609450 36.951514 12.417084 
-0.406646 0.875561 0.990905 -0.486474 1.853172 87.926434 1.442262 3.758539 0.018873 -2.919475 1.541179 4.842955 4.147949 15.962673 -14.166864 0.000000 -0.000000 0.000000 -2.472889 -4.763864 -3.249189 0.586444 -5.705425 20.750437 4.984853 -11.548077 -18.917053 0.000000 -0.000000 0.000000 0.179587 0.896550 15.773995 1.302204 1.089691 4.580824 -1.098151 -0.632433 10.707395 0.516681 -2.587890 10.899903 -3.502389 -7.104625 16.717167 -22.134447 20.202669 4.463727 -43.758845 6.576226 15.895129 -66.936441 -65.531351 89.482292 30.186344 -31.679778 -9.210032 23.748495 -11.400577 2.596050 34.387107 -7.175743 22.711471 60.838677 66.409423 85.878548 -26.122540 36.285519 12.241272 
-0.416198 0.882040 0.990731 -2.213706 1.677760 88.699344 1.938297 3.966417 -1.213033 -2.991099 2.761862 5.035222 3.738785 16.042658 -13.833804 0.000000 -0.000000 0.000000 -2.156964 -5.235456 -1.728495 0.987581 -4.573042 15.037439 4.883186 -10.241787 -18.547908 0.000000 -0.000000 0.000000 0.163246 1.471228 15.178920 1.086465 0.847328 4.559723 -1.080912 -0.616667 10.718445 0.254511 -2.517165 10.873276 -3.041829 -6.993106 16.455062 -21.911778 20.064414 4.638256 -43.862800 6.603223 16.121634 -67.182876 -65.716363 89.358034 33.926417 -31.352722 -9.973009 23.554525 -11.367247 2.808735 34.471219 -6.864950 22.556212 60.751076 65.704508 85.912548 -28.022173 36.091282 11.644680 
-0.426241 0.889215 0.991199 -4.179678 1.593460 89.628575 2.487743 4.232777 -2.650946 -2.978416 3.975136 5.409100 3.543079 16.358258 -13.489229 0.000000 -0.000000 0.000000 -1.279310 -5.071676 -1.682930 0.950845 -3.392427 11.801924 4.479155 -9.656910 -18.175563 0.000000 -0.000000 0.000000 0.050548 1.908507 14.709649 1.065566 0.989744 4.325553 -1.072868 -0.521354 10.516272 0.283350 -2.268349 10.937033 -3.064286 -6.830588 16.252452 -22.228907 19.949085 4.583818 -43.461572 6.620174 16.208545 -66.214127 -64.957266 89.552113 35.134954 -31.182055 -7.205820 23.519664 -11.435586 3.073839 34.353715 -6.638922 22.436344 60.468163 65.029847 86.070332 -29.903061 35.958946 10.790984 
-0.436158 0.894306 0.992513 -5.482542 1.695631 89.898625 3.025205 4.091908 -3.049037 -2.518600 4.819601 5.407034 3.304449 16.726293 -13.050538 0.000000 -0.000000 0.000000 -0.205682 -4.825001 -1.339843 0.598089 -2.742018 9.832161 4.112484 -9.001851 -17.082456 0.000000 -0.000000 0.000000 0.319421 1.811786 14.498908 1.071277 0.881284 4.504134 -1.025614 -0.487798 10.363029 -0.068783 -2.204402 10.741610 -3.050122 -6.531179 16.206030 -22.438551 19.949904 4.673195 -43.604227 6.651368 16.124973 -65.824534 -65.111039 88.987820 33.750132 -31.387621 -7.428841 23.263985 -11.258524 3.507359 34.193890 -6.533046 22.425596 60.293039 64.835103 85.865256 -29.444488 35.941781 10.413029 
-0.444846 0.899240 0.993673 -6.723619 1.657946 89.756871 3.313116 4.247464 -2.893373 -2.096396 5.128944 5.193657 3.161797 17.334636 -12.586061 0.000000 -0.000000 0.000000 0.107586 -3.763068 -1.347308 0.945038 -2.276645 9.491785 4.130390 -8.691012 -16.585636 0.000000 -0.000000 0.000000 0.354009 1.334220 14.559146 1.188598 1.017294 4.901297 -0.821471 -0.399175 10.448166 -0.183709 -2.278011 10.339192 -3.139806 -6.402181 15.729185 -22.508210 19.781133 4.538638 -44.215290 6.748245 16.141187 -64.862198 -65.298055 87.756440 33.087505 -31.393388 -7.379479 22.686555 -11.040640 3.695785 34.118371 -6.466234 22.387186 60.850586 64.970732 86.203572 -29.184008 35.618859 10.062184 
-0.454492 0.902698 0.993753 -7.726819 1.616296 89.519309 3.851699 4.597047 -2.487044 -1.976094 5.528909 4.925566 2.983734 17.542429 -12.238320 0.000000 -0.000000 0.000000 0.459283 -2.902172 -1.506203 1.337013 -1.737716 9.879311 3.859743 -8.553299 -16.735237 0.000000 -0.000000 0.000000 0.539816 0.891915 14.755593 1.254441 1.170749 4.905120 -0.840131 -0.587776 10.521656 -0.006643 -2.630659 9.950577 -2.945292 -6.480206 15.326134 -22.556798 19.660986 4.545752 -44.212104 6.866179 16.308072 -64.805750 -65.602762 87.269799 32.476974 -31.478554 -8.388038 22.136824 -10.949938 3.524971 34.143401 -6.750249 22.726603 61.464902 65.129623 86.213517 -29.985963 35.813018 8.346331 
-0.463933 0.905361 0.993575 -8.511933 1.495503 89.553172 4.382388 5.087289 -2.443582 -2.027207 5.636257 4.860615 2.807593 17.629392 -11.995498 0.000000 -0.000000 0.000000 0.966648 -2.684988 -1.867722 1.339035 -1.336994 10.176750 3.442790 -8.379041 -16.876279 0.000000 -0.000000 0.000000 0.567804 0.524523 14.559333 1.426206 0.878297 4.786299 -0.839751 -0.756198 10.356792 0.227519 -2.470286 10.166151 -2.853180 -6.443070 15.015952 -22.576055 19.418784 4.899180 -44.297359 7.154765 16.257413 -64.827641 -65.414490 87.288518 35.162989 -30.939240 -9.798654 22.084853 -11.040117 3.878627 34.223456 -6.640139 22.387672 61.191408 65.243199 86.160186 -35.380164 35.875354 7.156496 
-0.473176 0.906805 0.993116 -9.359525 1.204242 89.524271 4.467079 5.463038 -2.237358 -1.626170 5.974354 4.769788 2.692112 17.718414 -11.762068 0.000000 -0.000000 0.000000 1.158605 -2.890608 -1.941781 1.492347 -0.829005 10.302391 3.100563 -7.986370 -16.893881 0.000000 -0.000000 0.000000 0.650447 0.222555 13.742972 1.477878 0.523021 5.216255 -0.879605 -0.922056 10.411414 0.244233 -2.801444 9.980995 -2.544361 -6.270867 15.013407 -22.763926 19.128588 4.891109 -44.148776 7.130130 16.333887 -64.330475 -65.389213 85.965172 33.161836 -30.937528 -10.672215 21.818604 -11.007221 3.728668 34.448052 -6.310825 22.393515 61.699109 64.985792 87.077591 -30.403602 34.704155 10.579747 
-0.481899 0.906700 0.992806 -10.373473 0.817197 89.195595 4.732259 5.892806 -1.842070 -1.727810 6.596727 5.248811 2.308076 17.671371 -11.990876 0.000000 -0.000000 0.000000 1.165796 -2.752161 -1.533802 1.681150 -0.261893 10.285241 2.802562 -7.628994 -17.073489 0.000000 -0.000000 0.000000 0.553646 -0.044919 13.438293 1.621326 0.427244 5.146235 -0.834812 -1.062916 10.312657 0.369307 -3.060398 10.001715 -2.552193 -6.262960 15.233531 -22.957944 19.165643 5.015396 -44.311441 7.121877 16.242220 -63.248580 -65.283407 84.714396 32.427233 -30.986968 -11.593462 21.724851 -11.218922 3.677668 34.374810 -6.096709 22.282338 62.154791 64.974848 87.840158 -30.122959 34.696295 11.011487 
-0.490461 0.905852 0.992274 -11.356688 0.658902 88.863530 5.097289 6.374796 -1.766967 -1.583296 7.171922 6.444944 2.232641 17.801515 -12.295394 0.000000 -0.000000 0.000000 1.451354 -2.426779 -1.030683 1.770491 0.127855 10.248824 2.594758 -7.341424 -17.250993 0.000000 -0.000000 0.000000 0.845644 -0.373570 13.116270 1.711661 0.339519 4.802476 -0.866718 -1.115942 10.227010 0.643412 -3.299253 10.017981 -2.623877 -5.960705 15.799425 -23.138639 19.198088 5.117018 -44.618640 7.451516 16.090067 -62.147832 -64.846234 84.038650 33.850064 -31.167683 -9.368407 21.623012 -11.260943 3.725783 34.200864 -6.299470 22.141256 62.517101 64.956689 88.086328 -31.793891 35.907290 9.186243 
-0.498496 0.904706 0.991535 -12.305502 0.561390 88.406046 5.494819 6.627234 -2.104635 -1.314402 7.305057 8.720200 2.064125 18.485625 -12.836257 0.000000 -0.000000 0.000000 1.745929 -2.250630 -0.352012 1.880953 0.970581 10.236733 2.425342 -7.090874 -17.655225 0.000000 -0.000000 0.000000 1.171952 -0.628054 12.906018 1.925148 0.245471 4.555493 -0.811282 -1.096229 10.202716 0.908565 -3.712731 9.973481 -2.674308 -6.000770 15.911920 -23.365379 19.276020 4.904033 -44.739786 7.697781 15.844224 -62.117896 -64.307539 83.678437 33.278708 -30.567159 -8.563312 21.479076 -11.410883 3.642501 33.854295 -6.353315 22.069211 63.487245 64.543184 89.209543 -30.717361 34.471243 10.604846 
-0.505614 0.903390 0.991050 -13.379854 0.433619 87.868484 5.955997 6.609804 -2.595728 -1.143020 8.065247 11.689684 1.988743 18.764644 -13.414753 0.000000 -0.000000 0.000000 1.906595 -2.091125 0.299708 2.037687 1.356598 10.456705 2.065553 -6.679254 -17.960551 0.000000 -0.000000 0.000000 1.191426 -0.709161 12.168568 2.334880 -0.055567 5.427901 -0.508222 -1.015040 9.924720 1.174500 -4.251665 9.834418 -2.674370 -5.737933 16.139020 -23.952118 19.188182 4.796000 -45.193552 7.712832 15.780032 -60.525819 -64.458828 82.050466 31.099962 -31.053855 -8.055534 21.183010 -11.227294 3.850474 33.320854 -6.387683 21.611390 64.276657 65.081780 89.560427 -26.806097 35.051900 7.680353 
-0.512487 0.901183 0.990957 -14.550690 0.176078 86.881228 6.282848 6.437536 -2.714811 -0.958304 8.354184 14.982802 2.277448 19.621905 -13.377257 0.000000 -0.000000 0.000000 1.941891 -2.172830 1.635091 2.166392 2.258225 10.409973 1.709115 -6.621543 -18.012329 0.000000 -0.000000 0.000000 1.437985 -0.596224 12.245914 2.467906 -0.225829 5.387797 -0.532984 -1.031417 10.261417 1.524647 -4.696707 10.094620 -2.241133 -5.638322 16.069822 -24.007201 18.857353 4.780824 -45.626142 7.538448 15.654064 -59.886540 -64.036624 81.618471 34.993453 -30.177722 -9.597131 21.078646 -11.026548 3.972392 33.441780 -6.255740 21.441673 63.558365 65.029384 89.109906 -33.928979 35.434869 7.491378 
-0.519143 0.899366 0.990702 -15.622661 -0.300830 86.216201 6.527811 6.270227 -3.947707 -0.826366 9.742680 19.489335 2.601809 20.322843 -12.744543 0.000000 -0.000000 0.000000 1.831017 -2.202203 2.493951 2.098669 2.976137 10.583025 1.321699 -6.470715 -18.416519 0.000000 -0.000000 0.000000 1.480772 -0.187262 12.650939 2.581309 -0.210277 4.631216 -0.642013 -1.286041 10.256610 2.083975 -5.075501 10.494895 -2.033453 -5.667274 16.829544 -23.960692 18.739287 4.940889 -45.525578 7.596935 15.468658 -59.777385 -63.959446 81.775528 33.309504 -30.073689 -8.675421 20.991534 -11.341589 3.783398 33.325479 -6.395280 21.596586 64.372407 64.511568 90.734347 -31.167210 34.294474 9.755326 
-0.525364 0.896788 0.990848 -16.786059 -0.766544 85.326755 6.794205 6.079395 -5.165456 -0.801825 10.981676 24.235507 3.559749 20.954421 -11.596078 0.000000 -0.000000 0.000000 1.693585 -2.102538 3.581135 2.098536 3.873063 10.742555 0.619496 -6.539939 -18.642582 0.000000 -0.000000 0.000000 1.422841 -0.002093 12.823455 2.699917 -0.386941 4.639838 -0.716314 -1.224319 10.328913 2.353666 -5.469681 10.998092 -1.779322 -5.335075 17.311058 -24.144634 18.706374 4.942115 -45.435836 7.501290 15.300681 -59.317357 -64.125034 81.537872 34.687142 -30.044955 -8.905790 20.847978 -11.211761 3.939582 33.294586 -6.426984 21.468455 64.462217 64.793720 90.487628 -33.137460 34.726431 7.759199 
